<svg width="17" height="17" viewBox="0 0 17 17" fill="none" xmlns="http://www.w3.org/2000/svg">
<path d="M9.00815 0.330995C8.91269 0.128316 8.7157 0 8.5 0C8.2843 0 8.08731 0.128316 7.99185 0.330995L5.67205 5.25636L0.485247 6.04562C0.27178 6.0781 0.0944253 6.23476 0.0277592 6.44972C-0.038907 6.66468 0.0166782 6.90066 0.171142 7.05843L3.92446 10.8921L3.03818 16.3058C3.00171 16.5286 3.08911 16.7538 3.26361 16.8866C3.43812 17.0195 3.66947 17.037 3.8604 16.9318L8.5 14.3758L13.1396 16.9318C13.3305 17.037 13.5619 17.0195 13.7364 16.8866C13.9109 16.7538 13.9983 16.5286 13.9618 16.3058L13.0755 10.8921L16.8289 7.05843C16.9833 6.90066 17.0389 6.66468 16.9722 6.44972C16.9056 6.23476 16.7282 6.0781 16.5148 6.04562L11.3279 5.25636L9.00815 0.330995Z" fill="#EB9E47"/>
</svg>
